<?xml version="1.0" encoding="UTF-8"?>
<svg id="Logo" xmlns="http://www.w3.org/2000/svg" viewBox="0 0 872 517.33">
  <defs>
    <style>
      .cls-1 {
        fill: #fff;
      }

      .cls-2 {
        fill: red;
      }
    </style>
  </defs>
  <path class="cls-1" d="M474.04,367.16c0,2-1.39,3.39-4.16,4.16-3.33.89-13.65,1.33-30.96,1.33-15.87,0-26.08-.44-30.63-1.33-3.77-.77-6.16-3.27-7.16-7.49-3.77-15.98-6.72-24.52-8.82-25.64-1.78-.77-16.65-1.17-44.61-1.17-18.87,0-28.91.5-30.13,1.5-1.89,1.78-4,7.71-6.33,17.81-2.11,9.21-4.66,14.21-7.66,14.98-3.77.89-16.43,1.33-37.95,1.33-16.98,0-25.47-1.61-25.47-4.83,0-2.88,12.54-38.34,37.62-106.37,27.19-73.58,41.95-114.03,44.28-121.35,1.33-4.22,2.88-6.33,4.66-6.33,3,0,7.63.28,13.9.83,6.27.56,10.96.83,14.07.83s7.41-.19,13.23-.58c5.83-.39,10.18-.58,13.07-.58,2.11,0,4.05,1.83,5.83,5.49,5.44,11.65,21.31,51.6,47.61,119.86,26.41,68.7,39.62,104.54,39.62,107.54ZM356.01,215.51c-2.33,4.88-6.27,15.48-11.82,31.79-5.99,17.31-8.99,27.47-8.99,30.46,0,2,3.33,3.11,9.99,3.33,3.44.22,9.1.33,16.98.33,7.32,0,11.37-.89,12.15-2.66.22-.55.33-1.33.33-2.33,0-3.66-2.55-13.76-7.66-30.3-4.99-15.98-8.66-26.19-10.99-30.63Z"/>
  <path class="cls-1" d="M635.18,188.71c0,2.22-1.22,3.33-3.66,3.33-4.22,0-20.92-.83-50.11-2.5-.67,28.08-1,47.67-1,58.76,0,13.1.53,32.79,1.58,59.1,1.05,26.3,1.58,46,1.58,59.1,0,2.11-.5,3.44-1.5,4-.33.22-1.89.5-4.66.83-6.66.89-16.43,1.33-29.3,1.33-14.32,0-24.36-.44-30.13-1.33-3.11-.55-4.66-2.27-4.66-5.16,0-13.09.55-32.74,1.67-58.93,1.11-26.19,1.66-45.83,1.66-58.93,0-8.66-.45-27.97-1.33-57.93-22.2,2.22-39.9,3.33-53.1,3.33-1.78,0-2.66-.55-2.66-1.66,0-1.44.78-5.71,2.33-12.82,1.77-7.77,2.77-12.48,3-14.15.33-5.22.72-10.43,1.17-15.65.78-8.32,2.11-12.48,4-12.48.22,0,1,.06,2.33.17,17.98,2.33,44.56,3.5,79.74,3.5,9.99,0,28.41-1.05,55.27-3.16,14.42-1.11,21.7-1.66,21.81-1.66,2.22,0,3.5.14,3.83.42.33.28.55,1.36.67,3.25,0,3-.11,7.16-.33,12.49-.22,5.88-.33,10.04-.33,12.48,0,2.78.36,6.85,1.08,12.24.72,5.38,1.08,9.41,1.08,12.07Z"/>
  <g>
    <path class="cls-2" d="M276.85,479.35c-4.7-52.01-9.47-76.67-24.59-91.78s-39.77-19.89-91.78-24.59c52.01-4.7,76.67-9.47,91.78-24.59s19.89-39.77,24.59-91.78c4.7,52.01,9.47,76.67,24.59,91.78,15.12,15.12,39.78,19.89,91.78,24.59-52.01,4.7-76.67,9.47-91.78,24.59-15.12,15.12-19.89,39.78-24.59,91.78Z"/>
    <path d="M276.85,252.16c3.99,43.02,8.48,70.83,24.23,86.58,15.75,15.75,43.56,20.25,86.58,24.23-43.02,3.99-70.83,8.48-86.58,24.23-15.75,15.75-20.25,43.56-24.23,86.58-3.99-43.02-8.48-70.83-24.23-86.58-15.75-15.75-43.56-20.25-86.58-24.23,43.02-3.99,70.83-8.48,86.58-24.23s20.25-43.56,24.23-86.58M276.85,240.95c-9.19,105.39-16.64,112.84-122.03,122.03,105.39,9.19,112.84,16.64,122.03,122.03,9.19-105.39,16.64-112.84,122.03-122.03-105.39-9.19-112.84-16.64-122.03-122.03h0Z"/>
  </g>
  <g>
    <path class="cls-2" d="M616.7,282.02c-4.7-52.01-9.47-76.67-24.59-91.78s-39.78-19.89-91.78-24.59c52.01-4.7,76.67-9.47,91.78-24.59s19.89-39.77,24.59-91.78c4.7,52.01,9.47,76.67,24.59,91.78s39.78,19.89,91.78,24.59c-52.01,4.7-76.67,9.47-91.78,24.59s-19.89,39.77-24.59,91.78Z"/>
    <path d="M616.7,54.83c3.99,43.02,8.48,70.83,24.23,86.58,15.75,15.75,43.56,20.25,86.58,24.23-43.02,3.99-70.83,8.48-86.58,24.23-15.75,15.75-20.25,43.56-24.23,86.58-3.99-43.02-8.48-70.83-24.23-86.58-15.75-15.75-43.56-20.25-86.58-24.23,43.02-3.99,70.83-8.48,86.58-24.23,15.75-15.75,20.25-43.56,24.23-86.58M616.7,43.62c-9.19,105.39-16.64,112.84-122.03,122.03,105.39,9.19,112.84,16.64,122.03,122.03,9.19-105.39,16.64-112.84,122.03-122.03-105.39-9.19-112.84-16.64-122.03-122.03h0Z"/>
  </g>
  <path d="M331.05,180.41l-14.55.09c-.08-1.04-.1-1.86.02-2.88h13.06s16.24-16.44,16.24-16.44l16.43.02,18.22-.02c.97-2.94,3.64-4.25,6.56-3.75,2.32.39,3.98,2.09,3.73,4.58-.14,2.17-1.24,4.19-2.98,5.49s-3.86,1.08-5.33-.43c-.91-.83-1.42-1.86-2.1-2.97h-33.2c-5.61,5.2-10.75,10.5-16.08,16.32ZM387.97,162.61c0-1.34-1.09-2.43-2.43-2.43s-2.43,1.09-2.43,2.43,1.09,2.43,2.43,2.43,2.43-1.09,2.43-2.43Z"/>
  <g>
    <path d="M416.63,308.64c-2.29.92-4.05-.56-4.88-2.83h-51.04s-10.69,10.55-10.69,10.55l-11.49,11.46c-1.04-.03-1.82.14-3.01-.09l14.48-14.94c3.16-3.26,6.38-6.23,9.82-9.19h51.98c.73-2.43,3.28-3.75,5.55-2.73,1.13.51,1.68,1.62,2.25,2.71h12.94c.42-1.35,1.35-2.31,2.4-2.72,1.33-.52,2.75-.51,3.89.32,1.59,1.16,1.99,3.36,1.2,5.09s-2.79,2.84-4.76,2.35c-1.39-.35-2.19-1.47-2.72-2.8h-12.96c-.72,1.31-1.65,2.3-2.96,2.82ZM438.22,304.63c0-1.03-.83-1.86-1.86-1.86s-1.86.83-1.86,1.86.83,1.86,1.86,1.86,1.86-.83,1.86-1.86ZM417.49,304.74c0-1.01-.82-1.83-1.83-1.83s-1.83.82-1.83,1.83.82,1.83,1.83,1.83,1.83-.82,1.83-1.83Z"/>
    <path d="M420.61,318.11h-17.23c-.68,1.56-1.82,2.8-3.5,3.03-2.01.28-3.72-1.05-4.44-3.05l-45.06-.02c.64-.92,1.35-1.48,2.18-2.22h42.85c.29-1.46,1.08-2.42,2.39-2.93,2.44-.95,4.83.37,5.57,2.95l17.19-.04c.47-1.4,1.18-2.72,2.62-3.18,1.97-.62,4.47.52,5.15,2.51.64,1.88-.37,3.77-1.79,4.94-1.1.91-2.48,1.2-3.78.66-.97-.59-1.67-1.32-2.16-2.66ZM401.25,316.89c0-1.04-.84-1.88-1.88-1.88s-1.88.84-1.88,1.88.84,1.88,1.88,1.88,1.88-.84,1.88-1.88ZM426.24,316.73c0-1.02-.83-1.86-1.86-1.86s-1.86.83-1.86,1.86.83,1.86,1.86,1.86,1.86-.83,1.86-1.86Z"/>
  </g>
  <path d="M398.72,180.13c.61-.22,1.16-.07,1.66.24.71.45,1.07,1.28.77,2.08-.21.56-.66.9-1.24,1.15l-.02,7.82c.43.31.84.59,1.13,1.03.68,1.05.05,2.04-1,2.61v21.99s4.69,4.73,4.69,4.73l5.7,5.65v7.46c-.7.95-1.42,1.74-2.26,2.57l-8.12,8.07v40.8c.31.29.6.46.83.77.5.65.51,1.49-.06,2.11-.53.58-1.32.88-2.1.66-.73-.2-.9-.8-1.18-1.26v-1.02c.32-.59.82-1.03,1.56-1.21v-30.66s0-10.58,0-10.58l10.35-10.34v-7.09c-1.12-.85-2.03-1.76-3.04-2.7-2.52-2.46-4.92-4.94-7.3-7.52.05-.94,0-1.73,0-2.66v-19.75c-.57-.12-1.02-.41-1.24-.78-.66-1.09.11-2.3,1.24-2.85v-7.85c-.76-.17-1.21-.66-1.55-1.27v-.81c.28-.55.49-1.12,1.22-1.38ZM398.55,193.3c0,.47.38.86.86.86s.86-.38.86-.86-.38-.86-.86-.86-.86.38-.86.86ZM398.47,288.15c0,.48.39.88.88.88s.88-.39.88-.88-.39-.88-.88-.88-.88.39-.88.88ZM398.52,181.88c0,.47.38.86.86.86s.86-.38.86-.86-.38-.86-.86-.86-.86.38-.86.86Z"/>
  <path d="M389.19,180.13c.61-.22,1.16-.07,1.66.24.71.45,1.07,1.28.77,2.08-.21.56-.66.9-1.24,1.15l-.02,7.82c.43.31.84.59,1.13,1.03.68,1.05.05,2.04-1,2.61v21.99s4.69,4.73,4.69,4.73l5.7,5.65v7.46c-.7.95-1.42,1.74-2.26,2.57l-8.12,8.07v40.8c.31.29.6.46.83.77.5.65.51,1.49-.06,2.11-.53.58-1.32.88-2.1.66-.73-.2-.9-.8-1.18-1.26v-1.02c.32-.59.82-1.03,1.56-1.21v-30.66s0-10.58,0-10.58l10.35-10.34v-7.09c-1.12-.85-2.03-1.76-3.04-2.7-2.52-2.46-4.92-4.94-7.3-7.52.05-.94,0-1.73,0-2.66v-19.75c-.57-.12-1.02-.41-1.24-.78-.66-1.09.11-2.3,1.24-2.85v-7.85c-.76-.17-1.21-.66-1.55-1.27v-.81c.28-.55.49-1.12,1.22-1.38ZM389.02,193.3c0,.47.38.86.86.86s.86-.38.86-.86-.38-.86-.86-.86-.86.38-.86.86ZM388.95,288.15c0,.48.39.88.88.88s.88-.39.88-.88-.39-.88-.88-.88-.88.39-.88.88ZM388.99,181.88c0,.47.38.86.86.86s.86-.38.86-.86-.38-.86-.86-.86-.86.38-.86.86Z"/>
  <path d="M310.73,195v.81c-.34.61-.79,1.09-1.56,1.27v7.85c1.13.55,1.9,1.77,1.24,2.85-.22.37-.68.66-1.24.78v19.75c0,.93-.05,1.72,0,2.66-2.38,2.58-4.79,5.06-7.3,7.52-1.01.94-1.92,1.84-3.03,2.7v7.09s10.34,10.34,10.34,10.34v10.58s0,30.66,0,30.66c.74.18,1.23.61,1.56,1.21v1.02c-.28.46-.45,1.06-1.18,1.26-.78.22-1.57-.08-2.1-.66-.56-.62-.56-1.45-.06-2.11.23-.31.52-.48.83-.77v-40.8s-8.12-8.07-8.12-8.07c-.84-.83-1.57-1.62-2.26-2.57v-7.46s5.69-5.65,5.69-5.65l4.7-4.73v-21.99c-1.06-.58-1.7-1.56-1.01-2.61.29-.45.7-.72,1.13-1.03l-.02-7.82c-.57-.25-1.03-.59-1.24-1.15-.31-.8.06-1.63.77-2.08.49-.31,1.05-.46,1.66-.24.73.26.94.83,1.22,1.38ZM308.83,205.94c-.47,0-.86.38-.86.86s.38.86.86.86.86-.38.86-.86-.38-.86-.86-.86ZM308.88,300.76c-.48,0-.88.39-.88.88s.39.88.88.88.88-.39.88-.88-.39-.88-.88-.88ZM308.86,194.52c-.47,0-.86.38-.86.86s.38.86.86.86.86-.38.86-.86-.38-.86-.86-.86Z"/>
  <path d="M322.02,195v.81c-.34.61-.79,1.09-1.56,1.27v7.85c1.13.55,1.9,1.77,1.24,2.85-.22.37-.68.66-1.24.78v19.75c0,.93-.05,1.72,0,2.66-2.38,2.58-4.79,5.06-7.3,7.52-1.01.94-1.92,1.84-3.03,2.7v7.09s10.34,10.34,10.34,10.34v10.58s0,30.66,0,30.66c.74.18,1.23.61,1.56,1.21v1.02c-.28.46-.45,1.06-1.18,1.26-.78.22-1.57-.08-2.1-.66-.56-.62-.56-1.45-.06-2.11.23-.31.52-.48.83-.77v-40.8s-8.12-8.07-8.12-8.07c-.84-.83-1.57-1.62-2.26-2.57v-7.46s5.69-5.65,5.69-5.65l4.7-4.73v-21.99c-1.06-.58-1.7-1.56-1.01-2.61.29-.45.7-.72,1.13-1.03l-.02-7.82c-.57-.25-1.03-.59-1.24-1.15-.31-.8.06-1.63.77-2.08.49-.31,1.05-.46,1.66-.24.73.26.94.83,1.22,1.38ZM320.11,205.94c-.47,0-.86.38-.86.86s.38.86.86.86.86-.38.86-.86-.38-.86-.86-.86ZM320.17,300.76c-.48,0-.88.39-.88.88s.39.88.88.88.88-.39.88-.88-.39-.88-.88-.88ZM320.14,194.52c-.47,0-.86.38-.86.86s.38.86.86.86.86-.38.86-.86-.38-.86-.86-.86Z"/>
  <g>
    <path d="M567.42,334.97h-.86c-.84-.43-1.54-.59-2.12-1.6-.42-.72-.25-1.54.35-2.09.39-.36.85-.54,1.32-.8v-10.44c-.53-.27-.94-.54-1.27-.97-.52-.66-.53-1.53-.04-2.21.33-.46.77-.75,1.3-1.05v-34.31s-6.15-5.98-6.15-5.98c-2.08-2.03-4.1-4.01-5.95-6.27v-27.27c-1.62-.34-1.9-1.9-1.57-3.13.16-.59.64-1.02,1.26-1.1,1.12-.14,2.22.37,2.85,1.29.42.61.37,1.36-.08,1.92-.33.44-.74.72-1.24,1.03v26.96c4.21,3.92,8.2,7.92,12.1,12.08v34.79c.6.3,1.07.63,1.41,1.17.3.55.39,1.22.11,1.79-.31.62-.85,1-1.51,1.27v10.49c.75.42,1.38,1.02,1.48,1.87s-.13,1.66-.71,2.19c-.23.21-.53.19-.69.39ZM554.47,238.78c-.6,0-1.08.48-1.08,1.08s.49,1.08,1.08,1.08,1.08-.48,1.08-1.08-.49-1.08-1.08-1.08ZM566.57,331.65c-.59,0-1.06.47-1.06,1.06s.48,1.06,1.06,1.06,1.06-.47,1.06-1.06-.48-1.06-1.06-1.06ZM566.77,316.91c-.58,0-1.05.47-1.05,1.04s.47,1.04,1.05,1.04,1.05-.47,1.05-1.04-.47-1.04-1.05-1.04Z"/>
    <path d="M555.2,334.97h-.97c-.05-.08-.15-.12-.27-.15-1.03-.23-1.66-1.15-1.58-2.2.06-.77.49-1.43,1.03-1.75.69-.4,1.42-.35,2.18-.07l2.47-2.48c1.02-1.02,2-1.97,2.91-3.09v-15.65c-.72-.31-1.3-.75-1.59-1.44-.38-.88,0-1.77.74-2.33.27-.21.59-.3.85-.53v-7.61s-.01-14.56-.01-14.56c-.76-.85-1.49-1.52-2.27-2.29l-6.37-6.35c-1.22-1.22-2.44-2.32-3.55-3.63-.16-.47-.03-1.06,0-1.57.93.8,1.68,1.61,2.56,2.48l10.86,10.88v22.73c.92.37,1.66,1.07,1.64,2.05s-.75,1.73-1.63,2.19v16.17s-5.63,5.7-5.63,5.7c.48,1.42.35,2.67-1.13,3.31-.12.05-.2.12-.24.21ZM554.58,331.71c-.58,0-1.05.47-1.05,1.05s.47,1.05,1.05,1.05,1.05-.47,1.05-1.05-.47-1.05-1.05-1.05ZM561.54,306.4c-.58,0-1.06.47-1.06,1.05s.47,1.05,1.06,1.05,1.06-.47,1.06-1.05-.47-1.05-1.06-1.05Z"/>
    <path d="M538.19,320c.36-.43.77-.68,1.22-.97v-12.43c-.99-.87-1.81-1.73-2.75-2.65l-8.45-8.33v25.91c1.33.67,1.71,1.39,1.42,2.9l6.6,6.44c.64.63,1.23,1.18,1.98,1.74-.26.34-.49.55-.88.85-2.92-2.63-5.71-5.28-8.39-8.19-.7.39-1.39.67-2.12.42-1.28-.44-1.89-1.97-1.26-3.16.3-.57.86-.75,1.44-1.04v-34.85s11.53-11.67,11.53-11.67c.14.59.05,1.09.06,1.67l-7.24,7.31-3.14,3.14v6.93c1.21,1.09,2.25,2.12,3.38,3.24l8.99,8.93.03,12.84c.83.51,1.5,1.17,1.63,2.15.1.94-.53,1.72-1.28,2.11-.85.44-1.86.18-2.56-.45-.85-.76-.97-1.94-.22-2.84ZM527.53,322.63c-.58,0-1.05.47-1.05,1.05s.47,1.05,1.05,1.05,1.05-.47,1.05-1.05-.47-1.05-1.05-1.05ZM539.93,320.22c-.59,0-1.07.48-1.07,1.07s.48,1.07,1.07,1.07,1.07-.48,1.07-1.07-.48-1.07-1.07-1.07Z"/>
    <path d="M542.22,286.19c-.04.98-.85,1.49-1.57,1.93l-.05,6.65c-.39.11-.77.1-1.18.01l-.02-6.69c-.91-.37-1.61-1.08-1.66-2.06,0-1.01.69-1.75,1.67-2.09v-24.77s-12.4-12.51-12.4-12.51v-37c-1.07-.1-1.67-.95-1.62-1.96.04-.72.32-1.37.81-1.73,1.08-.79,2.78-.39,3.43.7.39.66.28,1.34.03,1.97s-.72.98-1.44,1.03v36.49s2.54,2.59,2.54,2.59l9.86,9.91v18.38s.01,6.91.01,6.91c.91.43,1.64,1.18,1.59,2.24ZM527.61,206.7c-.57,0-1.04.46-1.04,1.03s.46,1.03,1.04,1.03,1.04-.46,1.04-1.03-.46-1.03-1.04-1.03ZM539.97,285.03c-.55,0-.99.44-.99.99s.44.99.99.99.99-.44.99-.99-.44-.99-.99-.99Z"/>
    <path d="M556.08,198.15c.28-.33.53-.55.86-.83.31.29.58.53.88.85,2.41,2.6,4.89,5.08,7.59,7.39.2.13.52-.08.69-.12.75-.16,1.45-.05,2.03.43.52.43.86,1.15.73,1.91-.14.86-.74,1.46-1.52,1.88v33.06c-.41.56-.76.98-1.22,1.43l-6.16,6.11c-1.27,1.26-2.39,2.54-3.82,3.74-.1-.54-.07-1.05-.03-1.61,2.34-2.18,4.6-4.33,6.82-6.63,1.12-1.17,2.21-2.28,3.19-3.55.14-.7.02-1.41.02-2.16l-.02-30.39c-.7-.26-1.32-.62-1.59-1.3-.24-.6-.16-1.21.08-1.89l-5.15-5.14-3.36-3.2ZM566.61,206.5c-.58,0-1.06.47-1.06,1.05s.47,1.05,1.06,1.05,1.06-.47,1.06-1.05-.47-1.05-1.06-1.05Z"/>
    <path d="M553.22,256.02c.12.57.07,1.1,0,1.66-1.38,1.57-2.86,2.95-4.44,4.37-.12-.58-.04-1.02-.05-1.57l4.49-4.46Z"/>
    <path d="M545.82,266.98c.19.56.09,1.08.05,1.63-1.41,1.58-2.9,2.98-4.44,4.44-.05-.54-.08-1.06,0-1.61l4.39-4.47Z"/>
    <g>
      <path d="M520.56,332.3c.43-1,.6-1.23,1.8-1.78v-33.05s0-12.75,0-12.75l8.17-8.31,3.71-3.72v-10.58c-4.07-3.82-8.06-7.73-11.86-11.88v-25.44c-.98-.46-1.65-1.22-1.72-2.23.1-.96.75-1.65,1.71-2.04v-21.48c-1.23-.54-1.02-.48-1.8-1.38v-1.18c.75-1.17.57-1.09,1.85-1.82h1.11c.18.19.41.29.65.48.98.77,1.35,2.38.36,3.15l-1.01.79.02,19.71c-.07-.06-.18.04-.18.13v1.29c-.02.2.12.22.21.22.24.27.61.42.9.68.74.68.95,1.69.4,2.54-.32.49-.8.82-1.32,1.15l-.07,5.12c-.17,0-.17.22,0,.21l.03,19.45c-.13.02-.16.09-.02.11l8.58,8.39,3.37,3.6v11.4c-.49.63-1,1.13-1.58,1.72l-10.37,10.46c-.14,0-.15.08,0,.11l.06,43.57c-.13-.06-.19.07-.19.18s.06.24.19.18c-.02.37-.05.76.01,1.18.69.47,1.37,1.02,1.51,1.88.19,1.1-.61,2.08-1.65,2.39-.15.04-.23.09-.28.19h-.75c-.1-.19-.36-.21-.56-.31-.66-.32-.9-.96-1.26-1.5v-.85ZM522.77,195.89c-.57,0-1.03.46-1.03,1.03s.46,1.03,1.03,1.03,1.03-.46,1.03-1.03-.46-1.03-1.03-1.03ZM522.83,331.67c-.58,0-1.05.47-1.05,1.05s.47,1.05,1.05,1.05,1.05-.47,1.05-1.05-.47-1.05-1.05-1.05ZM522.91,221.59c-.57,0-1.03.46-1.03,1.02s.46,1.02,1.03,1.02,1.03-.46,1.03-1.02-.46-1.02-1.03-1.02Z"/>
      <path d="M523.53,218.79l.03,1.64c-.09,0-.22-.01-.22-.22v-1.29c.01-.1.12-.19.19-.13Z"/>
      <path d="M523.53,328.97c0,.12,0,.24,0,.37-.13.05-.19-.07-.19-.18s.06-.24.19-.18Z"/>
      <path d="M523.46,229.93c0,.07,0,.14,0,.21-.17,0-.17-.22,0-.21Z"/>
      <path d="M523.49,249.59l-.02.11c-.15-.02-.11-.09.02-.11Z"/>
      <path d="M523.47,285.28v.11c-.15-.03-.14-.11,0-.11Z"/>
    </g>
    <path d="M547.93,211.64c0,.29,1.87.75,1.7,2.59-.09.97-.83,1.64-1.71,1.98v12.49c.59.27,1.05.58,1.41,1.07.53.73.52,1.68,0,2.41-.35.49-.82.8-1.41,1.09v61.51c.84.44,1.59,1.07,1.66,2.05s-.64,1.77-1.64,2.12v14.14c.91.47,1.66,1.26,1.62,2.27-.04.95-.77,1.61-1.62,2.01v5.5c0,.61-.03,1.19.01,1.8.68.42,1.36.88,1.58,1.7.29,1.09-.4,2.37-1.51,2.69s-2.12-.27-2.71-1.12c-.53-.76-.45-1.69.15-2.36.34-.39.74-.65,1.24-.91v-4.68c.01-.89.1-1.74-.02-2.62-.71-.2-1.28-.6-1.54-1.14-.59-1.24.04-2.64,1.56-3.15v-14.1c-.55-.24-.98-.51-1.32-.94-.5-.63-.51-1.45-.07-2.12.34-.53.85-.81,1.39-1.16v-61.48c-1.35-.54-2.28-1.71-1.6-3.08.34-.68.89-1.15,1.6-1.51v-12.47c-.4-.25-.8-.42-1.15-.74-.68-.63-.79-1.54-.31-2.33.35-.59.84-1.03,1.46-1.44v-7c-.75-.4-1.49-.92-1.61-1.85-.13-1.02.65-2.16,1.72-2.35,1.46-.26,2.87,1.06,2.73,2.49-.08.86-.8,1.36-1.6,1.67l-.02,6.95ZM547.22,314.17c-.6,0-1.08.48-1.08,1.08s.49,1.08,1.08,1.08,1.08-.48,1.08-1.08-.49-1.08-1.08-1.08ZM547.31,325.86c-.59,0-1.08.48-1.08,1.07s.48,1.07,1.08,1.07,1.08-.48,1.08-1.07-.48-1.07-1.08-1.07ZM547.25,295.95c-.57,0-1.04.46-1.04,1.03s.47,1.03,1.04,1.03,1.04-.46,1.04-1.03-.47-1.03-1.04-1.03ZM547.33,229.94c-.61,0-1.1.49-1.1,1.09s.49,1.09,1.1,1.09,1.1-.49,1.1-1.09-.49-1.09-1.1-1.09ZM547.31,213c-.56,0-1.02.45-1.02,1.01s.45,1.01,1.02,1.01,1.02-.45,1.02-1.01-.45-1.01-1.02-1.01ZM547.31,201.61c-.55,0-1,.44-1,.99s.45.99,1,.99,1-.44,1-.99-.45-.99-1-.99Z"/>
    <path d="M562.15,230.49l.04,6.15c-.44.03-.79.04-1.22,0v-5.51s-6.97-6.86-6.97-6.86v-6.94s0-7.69,0-7.69c-1.24-.41-1.8-1.54-1.59-2.77.17-.98.89-1.68,1.94-1.57.92.06,1.78.53,2.33,1.26s.46,1.63-.18,2.25c-.35.38-.79.6-1.26.89v14.02c2.21,2.37,4.45,4.54,6.92,6.79ZM554.61,206.45c-.57,0-1.03.46-1.03,1.03s.46,1.03,1.03,1.03,1.03-.46,1.03-1.03-.46-1.03-1.03-1.03Z"/>
    <path d="M556.8,320.6c.44,1.36-.65,2.64-1.89,2.8-1.38.17-2.61-.89-2.52-2.32.06-.97.79-1.61,1.62-2.04v-13.69c-.66-.12-1.13-.43-1.4-.8-.88-1.21.14-2.66,1.39-3.33.13-1.64.02-3.3.02-4.94v-11.96s-3.96-3.96-3.96-3.96c-1.17-1.18-1.52-1.28-1.28-2.85,1.69,1.52,3.27,3.03,4.85,4.62.57.58,1.08,1.12,1.56,1.77l.04,17.37c.75.41,1.34.96,1.55,1.76.28,1.08-.4,2.04-1.54,2.31v9.54s0,4.19,0,4.19c.63.38,1.3.78,1.55,1.54ZM554.56,302.4c-.57,0-1.03.46-1.03,1.02s.46,1.02,1.03,1.02,1.03-.46,1.03-1.02-.46-1.02-1.03-1.02ZM554.6,320.15c-.58,0-1.05.47-1.05,1.04s.47,1.04,1.05,1.04,1.05-.47,1.05-1.04-.47-1.04-1.05-1.04Z"/>
    <path d="M574.18,202.17v1c-.42.75-.97,1.34-1.91,1.55v9.61c1.39.67,2.33,2.16,1.52,3.49-.28.45-.83.81-1.52.95v24.17c0,1.14-.07,2.1,0,3.25-2.92,3.15-5.88,6.2-8.97,9.2-1.24,1.15-2.36,2.26-3.73,3.3v8.67s12.71,12.66,12.71,12.66v12.95s0,37.53,0,37.53c.91.22,1.52.75,1.91,1.48v1.25c-.35.56-.56,1.3-1.45,1.55-.96.26-1.93-.1-2.58-.81-.69-.75-.69-1.78-.07-2.58.29-.38.64-.59,1.02-.94v-49.94s-9.98-9.87-9.98-9.87c-1.03-1.02-1.92-1.98-2.78-3.15v-9.13s6.99-6.91,6.99-6.91l5.77-5.79v-26.91c-1.3-.71-2.08-1.91-1.25-3.2.35-.55.86-.88,1.39-1.26l-.02-9.58c-.71-.31-1.26-.73-1.52-1.41-.37-.97.08-1.99.95-2.54.61-.38,1.29-.56,2.04-.29.89.32,1.16,1.02,1.5,1.69ZM571.84,215.55c-.58,0-1.05.47-1.05,1.05s.47,1.05,1.05,1.05,1.05-.47,1.05-1.05-.47-1.05-1.05-1.05ZM571.91,331.61c-.59,0-1.08.48-1.08,1.07s.48,1.07,1.08,1.07,1.08-.48,1.08-1.07-.48-1.07-1.08-1.07ZM571.88,201.57c-.58,0-1.05.47-1.05,1.05s.47,1.05,1.05,1.05,1.05-.47,1.05-1.05-.47-1.05-1.05-1.05Z"/>
    <g>
      <path d="M535.5,213.33c.5,1.24-.31,2.19-1.53,2.64v27.59s5.72,5.78,5.72,5.78l6.22,6.21c-.02.56.07.99-.05,1.63l-8.1-7.83c-1.77-1.71-3.38-3.45-4.98-5.31v-28.1c-1.32-.4-2.04-1.77-1.48-3,.28-.61.88-.91,1.47-1.22v-7c-.73-.23-1.25-.73-1.48-1.3-.28-.72-.28-1.49.17-2.1.63-.86,1.82-1.08,2.76-.65s1.54,1.51,1.28,2.57c-.19.75-.8,1.19-1.52,1.47v7c.71.39,1.25.89,1.53,1.6ZM533.32,201.67c-.56,0-1.01.45-1.01,1s.45,1,1.01,1,1.01-.45,1.01-1-.45-1-1.01-1ZM533.38,212.87c-.55,0-.99.44-.99.99s.44.99.99.99.99-.44.99-.99-.44-.99-.99-.99Z"/>
      <path d="M540.63,211.18v9.32c.85.37,1.52.99,1.64,1.89.15,1.09-.57,2.01-1.65,2.4v24.36c-.51-.34-.81-.73-1.21-1.18v-23.16c-.79-.16-1.31-.59-1.59-1.29-.52-1.32.2-2.61,1.6-3.01l-.02-9.29c-.76-.26-1.48-.64-1.72-1.42-.34-1.06.28-2.42,1.36-2.78,1.02-.35,2.04.2,2.68.97.49.6.65,1.34.36,2.04-.32.52-.72.9-1.44,1.17ZM539.97,221.65c-.56,0-1.02.45-1.02,1.01s.46,1.01,1.02,1.01,1.02-.45,1.02-1.01-.46-1.01-1.02-1.01ZM539.88,208.14c-.56,0-1.01.45-1.01,1s.45,1,1.01,1,1.01-.45,1.01-1-.45-1-1.01-1Z"/>
    </g>
  </g>
</svg>